<?xml version="1.0" standalone="no"?>
<!DOCTYPE svg PUBLIC "-//W3C//DTD SVG 20010904//EN"
 "http://www.w3.org/TR/2001/REC-SVG-20010904/DTD/svg10.dtd">
<svg version="1.0" xmlns="http://www.w3.org/2000/svg"
 width="512.000000pt" height="512.000000pt" viewBox="0 0 512.000000 512.000000"
 preserveAspectRatio="xMidYMid meet">

<g transform="translate(0.000000,512.000000) scale(0.100000,-0.100000)"
fill="#000000" stroke="none">
<path d="M3247 3992 c-14 -16 -17 -53 -19 -261 l-3 -243 -320 256 c-227 182
-327 256 -345 256 -18 0 -256 -185 -850 -661 -454 -364 -858 -688 -897 -720
-65 -53 -73 -63 -73 -94 0 -32 8 -41 153 -153 161 -125 186 -142 211 -142 9 0
59 35 113 79 l98 79 5 -748 c5 -718 6 -749 24 -769 l19 -21 1197 0 1197 0 19
21 c18 20 19 51 24 769 l5 748 98 -79 c54 -43 106 -79 115 -79 24 0 59 23 217
147 138 107 140 110 140 149 l0 39 -252 203 -253 203 0 490 c0 489 -2 520 -34
541 -6 4 -137 8 -292 8 -258 0 -282 -1 -297 -18z m483 -508 c0 -316 -3 -394
-12 -387 -7 6 -91 72 -185 148 l-173 137 0 249 0 249 185 0 185 0 0 -396z
m-342 -297 l821 -659 -27 -22 c-15 -12 -57 -45 -93 -74 l-66 -51 -129 107
c-71 58 -394 317 -719 574 -426 338 -597 468 -615 468 -18 0 -192 -132 -620
-473 -328 -259 -651 -518 -719 -574 l-124 -101 -86 66 c-48 37 -88 72 -89 77
-3 10 1627 1324 1639 1321 3 0 375 -297 827 -659z m-264 -259 l546 -433 -2
-755 -3 -755 -225 0 -225 0 -5 572 c-3 314 -7 573 -10 576 -28 25 -76 27 -640
27 -564 0 -612 -2 -640 -27 -3 -3 -7 -262 -10 -576 l-5 -572 -225 0 -225 0 -3
755 -2 755 552 438 c304 241 557 435 564 433 7 -3 258 -199 558 -438z m-44
-1423 l0 -515 -520 0 -520 0 0 515 0 515 520 0 520 0 0 -515z"/>
</g>
</svg>
