<?xml version="1.0" standalone="no"?>
<!DOCTYPE svg PUBLIC "-//W3C//DTD SVG 20010904//EN"
 "http://www.w3.org/TR/2001/REC-SVG-20010904/DTD/svg10.dtd">
<svg version="1.0" xmlns="http://www.w3.org/2000/svg"
 width="360.000000pt" height="360.000000pt" viewBox="0 0 360.000000 360.000000"
 preserveAspectRatio="xMidYMid meet">

<g transform="translate(0.000000,360.000000) scale(0.100000,-0.100000)"
fill="#000000" stroke="none">
<path d="M819 2631 c-47 -15 -66 -30 -83 -65 -14 -30 -16 -102 -16 -663 0
-605 1 -629 20 -660 40 -67 -23 -63 1060 -63 1083 0 1020 -4 1060 63 19 31 20
55 20 660 0 696 2 679 -64 715 -29 16 -108 17 -1001 19 -533 1 -982 -2 -996
-6z m599 -328 c1 -150 0 -273 -3 -273 -3 0 -24 14 -47 30 -80 58 -180 31 -208
-56 -7 -19 -9 -46 -6 -60 l6 -24 -190 0 -190 0 0 301 c0 193 4 307 11 320 6
11 20 24 32 29 12 4 150 8 307 7 l285 -2 3 -272z m140 -36 l2 -308 -24 -41
-24 -41 -16 31 c-14 27 -16 78 -16 352 l0 321 38 -3 37 -3 3 -308z m1243 284
c18 -22 19 -43 19 -327 l0 -304 -475 0 -475 0 0 40 c0 79 -47 130 -120 130
-45 0 -72 -11 -107 -43 l-23 -20 0 276 0 277 581 -2 581 -3 19 -24z m-1465
-542 c48 -29 146 -170 130 -187 -10 -9 -128 27 -173 54 -43 25 -83 68 -83 89
0 7 9 24 21 39 25 32 59 34 105 5z m456 4 c8 -10 18 -26 21 -35 10 -28 -34
-79 -93 -109 -56 -29 -147 -55 -156 -46 -11 11 50 112 96 158 39 39 56 49 83
49 20 0 40 -7 49 -17z m-527 -189 c36 -20 65 -37 63 -38 -2 0 -126 0 -275 2
l-273 3 0 34 0 35 210 0 209 0 66 -36z m1555 1 l0 -35 -544 0 c-299 0 -551 -3
-560 -6 -9 -3 -16 -1 -16 5 0 6 6 11 13 11 7 0 33 13 57 29 l45 29 503 1 502
1 0 -35z m-1281 -101 c20 -33 21 -50 21 -260 l0 -224 -40 0 -40 0 0 230 c0
188 3 237 15 260 9 17 17 30 19 30 2 0 13 -16 25 -36z m-126 -1 c4 -3 -20 -57
-53 -119 -61 -115 -67 -148 -26 -142 13 2 30 20 46 50 14 26 29 50 33 54 4 4
7 -68 7 -159 l0 -167 -297 0 c-291 0 -297 0 -320 22 -23 21 -23 24 -23 245 l0
223 313 0 c173 0 317 -3 320 -7z m1405 -218 c2 -211 1 -222 -18 -243 l-21 -22
-579 0 -580 0 0 178 0 177 42 -68 c32 -53 46 -67 62 -65 36 5 29 32 -39 140
-36 58 -65 111 -65 117 0 8 160 10 598 9 l597 -3 3 -220z"/>
<path d="M2149 2483 c-6 -7 -9 -20 -5 -28 5 -13 42 -15 251 -16 135 0 258 -1
273 -2 15 0 36 2 45 6 20 7 22 32 5 43 -7 5 -136 9 -286 9 -213 1 -275 -1
-283 -12z"/>
<path d="M2150 2355 c-10 -12 -10 -18 0 -30 11 -13 55 -15 285 -15 230 0 274
2 285 15 10 12 10 18 0 30 -11 13 -55 15 -285 15 -230 0 -274 -2 -285 -15z"/>
<path d="M2143 2224 c-13 -34 12 -37 287 -39 281 -2 311 2 297 39 -6 14 -36
16 -292 16 -250 0 -286 -2 -292 -16z"/>
<path d="M2107 1643 c-14 -14 -6 -53 13 -63 15 -8 24 -6 40 10 16 16 18 25 10
40 -10 19 -49 27 -63 13z"/>
<path d="M2250 1635 c-23 -28 9 -72 45 -59 36 14 24 74 -15 74 -10 0 -23 -7
-30 -15z"/>
<path d="M2390 1631 c-8 -17 -7 -24 10 -41 28 -28 63 -11 58 28 -4 35 -51 44
-68 13z"/>
<path d="M2537 1643 c-13 -12 -7 -52 9 -61 38 -21 80 21 54 53 -13 15 -51 20
-63 8z"/>
<path d="M2679 1629 c-10 -20 -9 -25 11 -41 30 -24 63 -8 58 30 -4 37 -51 44
-69 11z"/>
</g>
</svg>
