<?xml version="1.0" standalone="no"?>
<!DOCTYPE svg PUBLIC "-//W3C//DTD SVG 20010904//EN"
 "http://www.w3.org/TR/2001/REC-SVG-20010904/DTD/svg10.dtd">
<svg version="1.0" xmlns="http://www.w3.org/2000/svg"
 width="360.000000pt" height="360.000000pt" viewBox="0 0 360.000000 360.000000"
 preserveAspectRatio="xMidYMid meet">

<g transform="translate(0.000000,360.000000) scale(0.100000,-0.100000)"
fill="#000000" stroke="none">
<path d="M1402 3119 c-55 -27 -89 -73 -105 -138 l-12 -51 -193 0 -194 0 -34
-34 -34 -34 0 -1170 c0 -1169 0 -1169 21 -1196 11 -14 29 -31 39 -36 12 -7
332 -10 910 -10 984 0 932 -4 964 64 14 31 16 140 16 1176 0 994 -2 1146 -15
1174 -27 57 -41 61 -255 66 l-195 5 -6 35 c-11 69 -64 137 -122 159 -18 7
-157 11 -385 11 -344 0 -359 -1 -400 -21z m766 -79 c41 -25 62 -74 61 -142 0
-74 -18 -118 -58 -145 -34 -23 -37 -23 -368 -23 -361 0 -372 1 -407 54 -22 34
-22 175 0 217 28 56 47 58 409 59 314 0 332 -1 363 -20z m-873 -230 c9 -52 55
-115 104 -140 38 -19 58 -20 409 -20 l368 0 41 27 c43 28 82 85 93 137 l6 31
173 3 c119 2 178 -1 187 -9 19 -16 21 -2278 2 -2297 -17 -17 -1739 -17 -1756
0 -9 9 -12 278 -12 1150 0 1072 1 1138 18 1147 9 6 91 11 189 11 l171 0 7 -40z"/>
<path d="M1078 2459 c-16 -9 -18 -29 -18 -183 0 -149 2 -175 16 -180 31 -12
329 -7 342 6 8 8 12 63 12 180 l0 168 -26 10 c-34 13 -304 12 -326 -1z m267
-184 l0 -100 -100 0 -100 0 -3 103 -3 103 103 -3 103 -3 0 -100z"/>
<path d="M1592 2308 c-18 -18 -14 -56 7 -68 21 -11 878 -15 918 -4 27 8 38 36
23 64 -11 20 -18 20 -473 20 -347 0 -466 -3 -475 -12z"/>
<path d="M1071 1867 c-15 -19 -16 -334 -1 -353 10 -11 45 -14 167 -14 87 0
163 4 174 10 18 10 19 23 19 180 0 157 -1 170 -19 180 -30 16 -326 13 -340 -3z
m279 -177 l0 -100 -105 0 -105 0 0 100 0 100 105 0 105 0 0 -100z"/>
<path d="M1592 1721 c-8 -4 -12 -21 -10 -37 l3 -29 474 0 c440 0 475 1 485 18
8 12 8 22 0 35 -10 16 -46 17 -475 19 -255 2 -470 -1 -477 -6z"/>
<path d="M1073 1283 c-10 -3 -13 -49 -13 -178 0 -162 1 -175 19 -185 26 -13
306 -13 332 0 18 10 19 23 19 178 0 117 -4 172 -12 180 -12 12 -317 17 -345 5z
m277 -183 l0 -100 -105 0 -105 0 0 100 0 100 105 0 105 0 0 -100z"/>
<path d="M2045 1140 l-460 -5 -3 -29 c-2 -16 2 -32 10 -37 7 -5 221 -9 474 -9
490 0 491 0 482 46 -7 38 -29 39 -503 34z"/>
</g>
</svg>
